# xmcd
#
# Track frame offsets:
#	150
#	23971
#	32720
#	88209
#	96006
#	124116
#	137691
#	146180
#	152455
#
# Disc length: 2855 seconds
#
# Revision: 1
# Processed by: cddbd v1.5.2PL0 Copyright (c) Steve Scherf et al.
# Submitted via: audiograbber 1.83.01
#
DISCID=750b2509
DTITLE=Grateful Dead - 69-12-31 Boston Tea Party, Boston MA
DYEAR=1900
DGENRE=
TTITLE0=Alligator
TTITLE1=Drums
TTITLE2=Alligator > Jam > AWBYG Jam
TTITLE3=Alligator
TTITLE4=Caution
TTITLE5=Feedback
TTITLE6=Good Lovin'
TTITLE7=Drums
TTITLE8=The Eleven
EXTD=
EXTT0=
EXTT1=
EXTT2=
EXTT3=
EXTT4=
EXTT5=
EXTT6=
EXTT7=
EXTT8=
PLAYORDER=
